<?xml version="1.0" encoding="iso-8859-1"?>
<!-- Generator: Adobe Illustrator 18.0.0, SVG Export Plug-In . SVG Version: 6.00 Build 0)  -->
<!DOCTYPE svg PUBLIC "-//W3C//DTD SVG 1.1//EN" "http://www.w3.org/Graphics/SVG/1.1/DTD/svg11.dtd">
<svg version="1.1" id="_x30_" xmlns="http://www.w3.org/2000/svg" xmlns:xlink="http://www.w3.org/1999/xlink" x="0px" y="0px"
	 viewBox="0 0 512 512" style="enable-background:new 0 0 512 512;" xml:space="preserve">
<g>
	<rect style="opacity:0;fill:#FFFFFF;" width="512" height="512"/>
	<path style="opacity:0.1;fill:#040000;" d="M512,196.25V512H199.322l-96.717-92.672c-5.427-5.683-8.704-13.21-8.704-21.453v-34.458
		l10.035-9.626l1.024-0.973l4.147-3.994l25.293-24.218l1.331-1.28l97.997-93.952l1.024-0.973l3.072-2.97l1.075-1.024l13.107-12.595
		l24.986-23.91l1.024-1.024l41.421-39.68l37.888-36.301l30.618-29.389l2.202-2.099L512,196.25z"/>
	<g>
		<defs>
			<filter id="Adobe_OpacityMaskFilter" filterUnits="userSpaceOnUse" x="98.537" y="76.473" width="314.925" height="359.053">
				<feFlood  style="flood-color:white;flood-opacity:1" result="back"/>
				<feBlend  in="SourceGraphic" in2="back" mode="normal"/>
			</filter>
		</defs>
		<mask maskUnits="userSpaceOnUse" x="98.537" y="76.473" width="314.925" height="359.053" id="SVGID_1_">
			<g style="filter:url(#Adobe_OpacityMaskFilter);">
				<defs>
					
						<filter id="Adobe_OpacityMaskFilter_1_" filterUnits="userSpaceOnUse" x="98.537" y="76.473" width="314.925" height="359.053">
						<feFlood  style="flood-color:white;flood-opacity:1" result="back"/>
						<feBlend  in="SourceGraphic" in2="back" mode="normal"/>
					</filter>
				</defs>
				<mask maskUnits="userSpaceOnUse" x="98.537" y="76.473" width="314.925" height="359.053" id="SVGID_1_">
					<g style="filter:url(#Adobe_OpacityMaskFilter_1_);">
					</g>
				</mask>
				<linearGradient id="SVGID_2_" gradientUnits="userSpaceOnUse" x1="98.5375" y1="256" x2="413.4625" y2="256">
					<stop  offset="0.1014" style="stop-color:#F6F6F6"/>
					<stop  offset="1" style="stop-color:#FFFFFF"/>
				</linearGradient>
				<path style="mask:url(#SVGID_1_);fill:url(#SVGID_2_);" d="M413.462,108.648v260.347L380.557,400.7l-35.841,34.474l-0.367,0.353
					H131.932c-8.685,0-16.513-3.182-22.447-8.427c-0.795-0.648-1.529-1.355-2.201-2.121c-5.444-5.716-8.746-13.318-8.746-21.686
					V108.648c0-2.062,0.183-4.066,0.611-6.07c2.936-14.85,16.514-26.105,32.783-26.105h248.136c12.905,0,24.159,7.13,29.664,17.502
					c1.223,2.298,2.202,4.715,2.813,7.307C413.156,103.64,413.462,106.115,413.462,108.648z"/>
			</g>
		</mask>
		<linearGradient id="SVGID_3_" gradientUnits="userSpaceOnUse" x1="98.5375" y1="256" x2="413.4625" y2="256">
			<stop  offset="0.1014" style="stop-color:#F4F2BE"/>
			<stop  offset="1" style="stop-color:#F6F4D5"/>
		</linearGradient>
		<path style="fill:url(#SVGID_3_);" d="M413.462,108.648v260.347L380.557,400.7l-35.841,34.474l-0.367,0.353H131.932
			c-8.685,0-16.513-3.182-22.447-8.427c-0.795-0.648-1.529-1.355-2.201-2.121c-5.444-5.716-8.746-13.318-8.746-21.686V108.648
			c0-2.062,0.183-4.066,0.611-6.07c2.936-14.85,16.514-26.105,32.783-26.105h248.136c12.905,0,24.159,7.13,29.664,17.502
			c1.223,2.298,2.202,4.715,2.813,7.307C413.156,103.64,413.462,106.115,413.462,108.648z"/>
		<polygon style="opacity:0.2;fill:#776B5E;" points="344.349,381.501 234.44,435.509 343.86,435.509 344.349,435.366 
			344.716,435.222 		"/>
		<defs>
			<filter id="Adobe_OpacityMaskFilter_2_" filterUnits="userSpaceOnUse" x="98.537" y="76.473" width="314.925" height="73.367">
				<feFlood  style="flood-color:white;flood-opacity:1" result="back"/>
				<feBlend  in="SourceGraphic" in2="back" mode="normal"/>
			</filter>
		</defs>
		<mask maskUnits="userSpaceOnUse" x="98.537" y="76.473" width="314.925" height="73.367" id="SVGID_4_">
			<g style="filter:url(#Adobe_OpacityMaskFilter_2_);">
				<defs>
					<filter id="Adobe_OpacityMaskFilter_3_" filterUnits="userSpaceOnUse" x="98.537" y="76.473" width="314.925" height="73.367">
						<feFlood  style="flood-color:white;flood-opacity:1" result="back"/>
						<feBlend  in="SourceGraphic" in2="back" mode="normal"/>
					</filter>
				</defs>
				<mask maskUnits="userSpaceOnUse" x="98.537" y="76.473" width="314.925" height="73.367" id="SVGID_4_">
					<g style="filter:url(#Adobe_OpacityMaskFilter_3_);">
					</g>
				</mask>
				<linearGradient id="SVGID_5_" gradientUnits="userSpaceOnUse" x1="98.5375" y1="113.1566" x2="413.4625" y2="113.1566">
					<stop  offset="0.0338" style="stop-color:#F6F6F6"/>
					<stop  offset="0.6473" style="stop-color:#F6F6F6"/>
					<stop  offset="0.9807" style="stop-color:#F6F6F6"/>
				</linearGradient>
				<path style="mask:url(#SVGID_4_);fill:url(#SVGID_5_);" d="M413.462,101.282v48.558H98.537v-47.261
					c2.95-14.85,16.595-26.105,32.942-26.105h249.347C396.684,76.473,410.02,87.08,413.462,101.282z"/>
			</g>
		</mask>
		<linearGradient id="SVGID_6_" gradientUnits="userSpaceOnUse" x1="98.5375" y1="113.1566" x2="413.4625" y2="113.1566">
			<stop  offset="0.0338" style="stop-color:#5E411D"/>
			<stop  offset="0.6473" style="stop-color:#63543F"/>
			<stop  offset="0.9807" style="stop-color:#5F4625"/>
		</linearGradient>
		<path style="fill:url(#SVGID_6_);" d="M413.462,101.282v48.558H98.537v-47.261c2.95-14.85,16.595-26.105,32.942-26.105h249.347
			C396.684,76.473,410.02,87.08,413.462,101.282z"/>
		<path style="fill:#83715B;" d="M412.521,101.654v3.476c-3.425-14.201-16.697-24.808-32.477-24.808H131.909
			c-16.269,0-29.848,11.255-32.783,26.105v-3.478c2.936-14.85,16.514-26.105,32.783-26.105h248.135
			C395.824,76.844,409.096,87.451,412.521,101.654z"/>
		<g>
			<g>
				<g>
					<rect x="100.693" y="228.906" style="fill:#FFFEF5;" width="310.581" height="4.004"/>
				</g>
				<g>
					<rect x="100.693" y="227.904" style="fill:#97926D;" width="310.581" height="4.004"/>
				</g>
			</g>
			<g>
				<g>
					<rect x="100.693" y="186.967" style="fill:#FFFEF5;" width="310.581" height="4.004"/>
				</g>
				<g>
					<rect x="100.693" y="185.966" style="fill:#97926D;" width="310.581" height="4.004"/>
				</g>
			</g>
			<g>
				<g>
					<rect x="100.693" y="270.845" style="fill:#FFFEF5;" width="310.581" height="4.004"/>
				</g>
				<g>
					<rect x="100.693" y="269.844" style="fill:#97926D;" width="310.581" height="4.004"/>
				</g>
			</g>
			<g>
				<g>
					<rect x="100.693" y="312.783" style="fill:#FFFEF5;" width="310.581" height="4.004"/>
				</g>
				<g>
					<rect x="100.693" y="311.782" style="fill:#97926D;" width="310.581" height="4.004"/>
				</g>
			</g>
			<g>
				<g>
					<rect x="100.693" y="354.722" style="fill:#FFFEF5;" width="310.581" height="4.004"/>
				</g>
				<g>
					<rect x="100.693" y="353.721" style="fill:#97926D;" width="310.581" height="4.004"/>
				</g>
			</g>
			<g>
				<g>
					<polygon style="fill:#FFFEF5;" points="384.715,396.675 380.557,400.682 100.678,400.682 100.678,396.675 					"/>
				</g>
				<g>
					<polygon style="fill:#97926D;" points="385.755,395.673 381.596,399.681 100.678,399.681 100.678,395.673 					"/>
				</g>
			</g>
		</g>
		<g>
			<rect x="140.594" y="149.84" style="fill:#FFFFFF;" width="10.275" height="285.687"/>
			<rect x="139.248" y="149.84" style="fill:#B11C36;" width="9.724" height="285.687"/>
		</g>
		<linearGradient id="SVGID_7_" gradientUnits="userSpaceOnUse" x1="344.3492" y1="402.2441" x2="413.4625" y2="402.2441">
			<stop  offset="0.1063" style="stop-color:#EDE2A9"/>
			<stop  offset="1" style="stop-color:#F0E8B8"/>
		</linearGradient>
		<polygon style="fill:url(#SVGID_7_);" points="413.462,368.978 380.557,400.682 344.349,435.51 344.349,368.978 		"/>
	</g>
</g>
</svg>
